<svg xmlns="http://www.w3.org/2000/svg" xmlns:xlink="http://www.w3.org/1999/xlink" width="500" zoomAndPan="magnify" viewBox="0 0 375 374.999991" height="500" preserveAspectRatio="xMidYMid meet" version="1.0"><defs><g></g><clipPath id="f6e39aeb9b"><path d="M 0.71875 166 L 91 166 L 91 174 L 0.71875 174 Z M 0.71875 166 " clip-rule="nonzero"></path></clipPath><clipPath id="3b8b7ee3ce"><path d="M 230 0.121094 L 251 0.121094 L 251 28 L 230 28 Z M 230 0.121094 " clip-rule="nonzero"></path></clipPath><clipPath id="47b0f938a2"><path d="M 0.71875 148 L 252 148 L 252 192.359375 L 0.71875 192.359375 Z M 0.71875 148 " clip-rule="nonzero"></path></clipPath><clipPath id="b02ab58922"><rect x="0" width="252" y="0" height="193"></rect></clipPath></defs><g transform="matrix(1, 0, 0, 1, 60, 75)"><g clip-path="url(#b02ab58922)"><g fill="#FAF6EC" fill-opacity="1"><g transform="translate(103.139672, 167.286728)"><g><path d="M 5.390625 0 L 5.390625 -63.421875 L 45.421875 -63.421875 L 45.421875 -56.765625 L 12.859375 -56.765625 L 12.859375 -34.8125 L 40.125 -34.8125 L 40.125 -28.421875 L 12.859375 -28.421875 L 12.859375 0 Z M 5.390625 0 "></path></g></g></g><g clip-path="url(#f6e39aeb9b)"><path stroke-linecap="butt" transform="matrix(1.686585, 0.000000000000003881, -0.000000000000003881, 1.686585, 4.221958, 166.842479)" fill="none" stroke-linejoin="miter" d="M 0.00041383 1.999523 L 49.402212 1.999523 " stroke="#FAF6EC" stroke-width="4" stroke-opacity="1" stroke-miterlimit="4"></path></g><path stroke-linecap="butt" transform="matrix(0, 1.686585, -1.686585, 0, 90.907259, 90.276697)" fill="none" stroke-linejoin="miter" d="M 0.00038338 1.999368 L 49.402182 1.999368 " stroke="#FAF6EC" stroke-width="4" stroke-opacity="1" stroke-miterlimit="4"></path><path stroke-linecap="butt" transform="matrix(1.686585, 0.000000000000001941, -0.000000000000001941, 1.686585, 87.544756, 90.26602)" fill="none" stroke-linejoin="miter" d="M -0.00105993 2.000852 L 49.403055 2.000852 " stroke="#FAF6EC" stroke-width="4" stroke-opacity="1" stroke-miterlimit="4"></path><path stroke-linecap="butt" transform="matrix(1.686585, 0.000000000000001941, -0.000000000000001941, 1.686585, 167.494384, 10.316391)" fill="none" stroke-linejoin="miter" d="M 0.00101376 2.001095 L 38.40379 2.001095 " stroke="#FAF6EC" stroke-width="4" stroke-opacity="1" stroke-miterlimit="4"></path><path fill="#FAF6EC" d="M 233.953125 3.570312 L 247.445312 13.691406 L 233.953125 23.808594 Z M 233.953125 3.570312 " fill-opacity="1" fill-rule="nonzero"></path><g clip-path="url(#3b8b7ee3ce)"><path stroke-linecap="round" transform="matrix(1.686585, 0.000000000000001941, -0.000000000000001941, 1.686585, 167.494384, 10.316391)" fill="none" stroke-linejoin="round" d="M 39.404333 -3.999846 L 47.404043 2.001095 L 39.404333 7.999719 Z M 39.404333 -3.999846 " stroke="#FAF6EC" stroke-width="4" stroke-opacity="1" stroke-miterlimit="4"></path></g><g clip-path="url(#47b0f938a2)"><path stroke-linecap="butt" transform="matrix(1.686539, 0.0124639, -0.0124639, 1.686539, 4.232659, 183.708439)" fill="none" stroke-linejoin="miter" d="M -0.000412732 2.000308 L 135.317426 2.000849 " stroke="#FAF6EC" stroke-width="4" stroke-opacity="1" stroke-miterlimit="4"></path></g><path stroke-linecap="butt" transform="matrix(0, 1.686585, -1.686585, 0, 170.856889, 10.327055)" fill="none" stroke-linejoin="miter" d="M 0.000634444 1.999612 L 49.402433 1.999612 " stroke="#FAF6EC" stroke-width="4" stroke-opacity="1" stroke-miterlimit="4"></path><g fill="#FAF6EC" fill-opacity="1"><g transform="translate(156.362553, 167.286728)"><g><path d="M 5.390625 0 L 5.390625 -63.421875 L 12.859375 -63.421875 L 12.859375 -6.65625 L 45.34375 -6.65625 L 45.34375 0 Z M 5.390625 0 "></path></g></g></g></g></g></svg>